<?xml version="1.0" standalone="no"?>
<!DOCTYPE svg PUBLIC "-//W3C//DTD SVG 20010904//EN"
 "http://www.w3.org/TR/2001/REC-SVG-20010904/DTD/svg10.dtd">
<svg version="1.0" xmlns="http://www.w3.org/2000/svg"
 width="1060.000000pt" height="1280.000000pt" viewBox="0 0 1060.000000 1280.000000"
 preserveAspectRatio="xMidYMid meet">
<metadata>
Created by potrace 1.15, written by Peter Selinger 2001-2017
</metadata>
<g transform="translate(0.000000,1280.000000) scale(0.100000,-0.100000)"
fill="#000000" stroke="none">
<path d="M9865 12786 c-22 -7 -96 -42 -165 -77 -462 -239 -952 -366 -1765
-459 -99 -11 -216 -25 -260 -30 -690 -86 -1421 -96 -2285 -30 -306 23 -556 62
-762 119 -196 53 -237 61 -324 61 -72 0 -141 -21 -158 -49 -3 -5 5 -34 19 -65
36 -82 129 -347 169 -483 191 -645 301 -1407 299 -2068 -2 -821 -112 -1947
-292 -2996 -91 -527 -114 -638 -196 -969 -106 -422 -251 -887 -523 -1675 -55
-159 -126 -364 -157 -455 -75 -217 -107 -284 -169 -345 -87 -87 -169 -95 -305
-30 -92 44 -131 71 -320 223 -85 68 -173 136 -196 152 -146 100 -447 202 -679
231 -129 16 -352 6 -474 -20 -354 -77 -727 -291 -937 -538 -174 -204 -302
-479 -362 -779 -26 -133 -23 -385 6 -524 81 -383 256 -702 529 -962 303 -288
745 -431 1225 -397 249 18 455 69 642 159 362 174 703 507 910 885 46 85 199
436 270 620 80 208 192 570 385 1245 141 496 219 761 300 1025 273 892 388
1388 524 2270 38 248 118 908 161 1335 22 221 31 337 65 790 30 396 39 1025
20 1360 -10 167 -34 428 -46 479 l-5 24 113 -7 c62 -3 176 -10 253 -16 779
-53 1435 -58 1985 -15 636 50 1024 112 1755 280 464 107 753 172 801 180 l42
6 16 -73 c82 -369 126 -860 147 -1616 15 -560 -3 -1348 -41 -1802 -57 -669
-232 -1823 -416 -2740 -165 -819 -297 -1287 -556 -1975 -61 -159 -115 -306
-121 -325 -17 -51 -84 -115 -136 -131 -38 -11 -53 -11 -110 4 -94 25 -184 80
-398 245 -236 181 -274 206 -401 259 -247 102 -445 145 -677 145 -288 -1 -511
-63 -805 -224 -423 -233 -687 -607 -790 -1122 -24 -119 -27 -338 -6 -466 44
-265 154 -531 316 -762 87 -125 281 -318 395 -394 390 -259 917 -332 1429
-197 483 126 962 546 1211 1058 125 256 526 1428 740 2160 244 834 415 1567
546 2335 148 869 228 1617 281 2605 16 304 16 1507 0 1860 -36 780 -64 1052
-153 1477 -119 573 -250 1003 -351 1158 -50 76 -116 97 -213 66z"/>
</g>
</svg>
